# xmcd CD database file
#
# Track frame offsets:
#	150
#	12570
#	19993
#	36172
#	57194
#	78021
#	95518
#	114668
#	136136
#	153690
#	166175
#	188856
#	210211
#	229787
#	254353
#	272722
#	289308
#	317788
#	322317
#
# Disc length: 4571 seconds
#
# Revision: 0
# Processed by: cddbd v1.5.2PL0 Copyright (c) Steve Scherf et al.
# Submitted via: CDex 1.70beta2
#
DISCID=0d11d913
DTITLE=Cotton Club Singers - Hofimánia
DYEAR=2007
DGENRE=Jazz
TTITLE0=Jó estét!
TTITLE1=Nyitány
TTITLE2=Próbálj meg lazítani!
TTITLE3=Kicsit szomorkás a hangulatom
TTITLE4=Bölcsődal
TTITLE5=Hofélia
TTITLE6=Minden asszony életében
TTITLE7=Az én világom ez
TTITLE8=Hegedűs a Háztetőn - részletek (Ha én gazdag lennék) - Bordal
TTITLE9=Kell néha egy kis csavargás
TTITLE10=Odavagyok magáért
TTITLE11=Egyél kását!
TTITLE12=Én úgy szeretnék dzsesszdobos lenni
TTITLE13=Egy kiöregedett vadászkutya
TTITLE14=Fogsz te a fox helyett charlestont járni
TTITLE15=Felmegyek hozzád
TTITLE16=Macskaduett
TTITLE17=Finálé
TTITLE18=Gondolj apádra!
EXTD=YEAR: 2007
EXTT0=
EXTT1=
EXTT2=
EXTT3=
EXTT4=
EXTT5=
EXTT6=
EXTT7=
EXTT8=
EXTT9=
EXTT10=
EXTT11=
EXTT12=
EXTT13=
EXTT14=
EXTT15=
EXTT16=
EXTT17=
EXTT18=
PLAYORDER=
